<svg width="335" height="440" viewBox="0 0 335 440" fill="none" xmlns="http://www.w3.org/2000/svg">
<path d="M1.5 167.969C1.5 76.4534 75.6878 2.26562 167.203 2.26562C258.718 2.26562 332.906 76.4535 332.906 167.969V437.922H1.5V167.969Z" stroke="#FFCB00" stroke-width="3"/>
<path d="M86.4723 58.7656V43.0856H92.3411C93.6702 43.0856 94.8126 43.3022 95.7683 43.7352C96.7241 44.1534 97.4558 44.7656 97.9635 45.572C98.4862 46.3635 98.7475 47.3267 98.7475 48.4616C98.7475 49.5667 98.4862 50.5224 97.9635 51.3288C97.4558 52.1203 96.7241 52.7326 95.7683 53.1656C94.8126 53.5987 93.6702 53.8152 92.3411 53.8152H87.3907L88.1299 53.0312V58.7656H86.4723ZM88.1299 53.1656L87.3907 52.3592H92.2963C93.8643 52.3592 95.0515 52.0232 95.8579 51.3512C96.6793 50.6643 97.0899 49.7011 97.0899 48.4616C97.0899 47.2072 96.6793 46.2366 95.8579 45.5496C95.0515 44.8627 93.8643 44.5192 92.2963 44.5192H87.3907L88.1299 43.7352V53.1656ZM101.711 58.7656V47.0056H103.235V50.2088L103.078 49.6488C103.406 48.7528 103.959 48.0734 104.735 47.6104C105.512 47.1326 106.475 46.8936 107.625 46.8936V48.4392C107.565 48.4392 107.505 48.4392 107.446 48.4392C107.386 48.4243 107.326 48.4168 107.267 48.4168C106.027 48.4168 105.056 48.7976 104.355 49.5592C103.653 50.3059 103.302 51.3736 103.302 52.7624V58.7656H101.711ZM117.022 58.7656V56.1672L116.954 55.7416V51.396C116.954 50.3955 116.671 49.6264 116.103 49.0888C115.551 48.5512 114.722 48.2824 113.617 48.2824C112.855 48.2824 112.131 48.4094 111.444 48.6632C110.757 48.9171 110.175 49.2531 109.697 49.6712L108.98 48.484C109.577 47.9763 110.294 47.588 111.13 47.3192C111.967 47.0355 112.848 46.8936 113.774 46.8936C115.297 46.8936 116.469 47.2744 117.29 48.036C118.127 48.7827 118.545 49.9251 118.545 51.4632V58.7656H117.022ZM112.967 58.8776C112.086 58.8776 111.317 58.7358 110.66 58.452C110.018 58.1534 109.525 57.7502 109.182 57.2424C108.838 56.7198 108.666 56.1224 108.666 55.4504C108.666 54.8382 108.808 54.2856 109.092 53.7928C109.391 53.2851 109.869 52.8819 110.526 52.5832C111.198 52.2696 112.094 52.1128 113.214 52.1128H117.268V53.3H113.258C112.123 53.3 111.332 53.5016 110.884 53.9048C110.451 54.308 110.234 54.8083 110.234 55.4056C110.234 56.0776 110.496 56.6152 111.018 57.0184C111.541 57.4216 112.273 57.6232 113.214 57.6232C114.11 57.6232 114.879 57.4216 115.521 57.0184C116.178 56.6003 116.656 56.003 116.954 55.2264L117.313 56.324C117.014 57.1006 116.491 57.7203 115.745 58.1832C115.013 58.6462 114.087 58.8776 112.967 58.8776ZM122.735 63.2232C122.183 63.2232 121.653 63.1336 121.145 62.9544C120.652 62.7752 120.227 62.5064 119.868 62.148L120.607 60.9608C120.906 61.2446 121.227 61.4611 121.571 61.6104C121.929 61.7747 122.325 61.8568 122.758 61.8568C123.28 61.8568 123.728 61.7075 124.102 61.4088C124.49 61.1251 124.856 60.6174 125.199 59.8856L125.961 58.1608L126.14 57.9144L130.979 47.0056H132.547L126.655 60.1768C126.327 60.9384 125.961 61.5432 125.558 61.9912C125.169 62.4392 124.744 62.7528 124.281 62.932C123.818 63.1262 123.303 63.2232 122.735 63.2232ZM125.871 59.1016L120.451 47.0056H122.108L126.902 57.8024L125.871 59.1016ZM139.453 58.8776C138.229 58.8776 137.154 58.6238 136.228 58.116C135.302 57.5934 134.578 56.884 134.055 55.988C133.532 55.0771 133.271 54.0392 133.271 52.8744C133.271 51.7096 133.517 50.6792 134.01 49.7832C134.518 48.8872 135.205 48.1854 136.071 47.6776C136.952 47.155 137.938 46.8936 139.028 46.8936C140.133 46.8936 141.111 47.1475 141.962 47.6552C142.828 48.148 143.508 48.8499 144.001 49.7608C144.493 50.6568 144.74 51.6947 144.74 52.8744C144.74 52.9491 144.732 53.0312 144.717 53.1208C144.717 53.1955 144.717 53.2776 144.717 53.3672H134.481V52.18H143.866L143.239 52.6504C143.239 51.7992 143.052 51.0451 142.679 50.388C142.321 49.716 141.828 49.1934 141.201 48.82C140.573 48.4467 139.849 48.26 139.028 48.26C138.221 48.26 137.497 48.4467 136.855 48.82C136.213 49.1934 135.713 49.716 135.354 50.388C134.996 51.06 134.817 51.8291 134.817 52.6952V52.9416C134.817 53.8376 135.011 54.6291 135.399 55.316C135.802 55.988 136.355 56.5182 137.057 56.9064C137.773 57.2798 138.587 57.4664 139.498 57.4664C140.215 57.4664 140.88 57.3395 141.492 57.0856C142.119 56.8318 142.657 56.4435 143.105 55.9208L144.001 56.9512C143.478 57.5784 142.821 58.0563 142.029 58.3848C141.253 58.7134 140.394 58.8776 139.453 58.8776ZM147.977 58.7656V47.0056H149.5V50.2088L149.343 49.6488C149.672 48.7528 150.224 48.0734 151.001 47.6104C151.778 47.1326 152.741 46.8936 153.891 46.8936V48.4392C153.831 48.4392 153.771 48.4392 153.711 48.4392C153.652 48.4243 153.592 48.4168 153.532 48.4168C152.293 48.4168 151.322 48.7976 150.62 49.5592C149.918 50.3059 149.567 51.3736 149.567 52.7624V58.7656H147.977ZM166.212 58.7656V44.5192H160.702V43.0856H173.38V44.5192H167.87V58.7656H166.212ZM175.693 58.7656V47.0056H177.283V58.7656H175.693ZM176.499 44.4072C176.17 44.4072 175.894 44.2952 175.67 44.0712C175.446 43.8472 175.334 43.5784 175.334 43.2648C175.334 42.9512 175.446 42.6899 175.67 42.4808C175.894 42.2568 176.17 42.1448 176.499 42.1448C176.828 42.1448 177.104 42.2494 177.328 42.4584C177.552 42.6675 177.664 42.9288 177.664 43.2424C177.664 43.571 177.552 43.8472 177.328 44.0712C177.119 44.2952 176.842 44.4072 176.499 44.4072ZM196.403 46.8936C197.358 46.8936 198.187 47.0803 198.889 47.4536C199.606 47.812 200.158 48.3646 200.547 49.1112C200.95 49.8579 201.151 50.7987 201.151 51.9336V58.7656H199.561V52.0904C199.561 50.851 199.262 49.9176 198.665 49.2904C198.083 48.6483 197.254 48.3272 196.179 48.3272C195.372 48.3272 194.67 48.499 194.073 48.8424C193.491 49.171 193.035 49.6563 192.707 50.2984C192.393 50.9256 192.236 51.6872 192.236 52.5832V58.7656H190.646V52.0904C190.646 50.851 190.347 49.9176 189.75 49.2904C189.152 48.6483 188.316 48.3272 187.241 48.3272C186.45 48.3272 185.755 48.499 185.158 48.8424C184.56 49.171 184.098 49.6563 183.769 50.2984C183.455 50.9256 183.299 51.6872 183.299 52.5832V58.7656H181.708V47.0056H183.231V50.1864L182.985 49.6264C183.343 48.7752 183.918 48.1107 184.71 47.6328C185.516 47.14 186.464 46.8936 187.555 46.8936C188.704 46.8936 189.683 47.1848 190.489 47.7672C191.295 48.3347 191.818 49.1934 192.057 50.3432L191.43 50.0968C191.773 49.1411 192.378 48.372 193.244 47.7896C194.125 47.1923 195.178 46.8936 196.403 46.8936ZM205.464 58.7656V47.0056H207.055V58.7656H205.464ZM206.271 44.4072C205.942 44.4072 205.666 44.2952 205.442 44.0712C205.218 43.8472 205.106 43.5784 205.106 43.2648C205.106 42.9512 205.218 42.6899 205.442 42.4808C205.666 42.2568 205.942 42.1448 206.271 42.1448C206.599 42.1448 206.876 42.2494 207.1 42.4584C207.324 42.6675 207.436 42.9288 207.436 43.2424C207.436 43.571 207.324 43.8472 207.1 44.0712C206.891 44.2952 206.614 44.4072 206.271 44.4072ZM217.483 46.8936C218.439 46.8936 219.275 47.0803 219.992 47.4536C220.724 47.812 221.291 48.3646 221.694 49.1112C222.113 49.8579 222.322 50.7987 222.322 51.9336V58.7656H220.731V52.0904C220.731 50.851 220.418 49.9176 219.79 49.2904C219.178 48.6483 218.312 48.3272 217.192 48.3272C216.356 48.3272 215.624 48.499 214.997 48.8424C214.385 49.171 213.907 49.6563 213.563 50.2984C213.235 50.9256 213.07 51.6872 213.07 52.5832V58.7656H211.48V47.0056H213.003V50.2312L212.757 49.6264C213.13 48.7752 213.728 48.1107 214.549 47.6328C215.37 47.14 216.348 46.8936 217.483 46.8936ZM231.635 63.2232C230.56 63.2232 229.53 63.0664 228.544 62.7528C227.558 62.4392 226.759 61.9912 226.147 61.4088L226.954 60.1992C227.506 60.692 228.186 61.0803 228.992 61.364C229.813 61.6627 230.679 61.812 231.59 61.812C233.084 61.812 234.181 61.4611 234.883 60.7592C235.585 60.0723 235.936 58.9971 235.936 57.5336V54.5992L236.16 52.5832L236.003 50.5672V47.0056H237.526V57.332C237.526 59.363 237.026 60.8488 236.026 61.7896C235.04 62.7454 233.577 63.2232 231.635 63.2232ZM231.344 58.3176C230.224 58.3176 229.216 58.0787 228.32 57.6008C227.424 57.108 226.715 56.4286 226.192 55.5624C225.684 54.6963 225.43 53.7032 225.43 52.5832C225.43 51.4632 225.684 50.4776 226.192 49.6264C226.715 48.7603 227.424 48.0883 228.32 47.6104C229.216 47.1326 230.224 46.8936 231.344 46.8936C232.389 46.8936 233.33 47.1102 234.166 47.5432C235.003 47.9763 235.667 48.6184 236.16 49.4696C236.653 50.3208 236.899 51.3587 236.899 52.5832C236.899 53.8078 236.653 54.8456 236.16 55.6968C235.667 56.548 235.003 57.1976 234.166 57.6456C233.33 58.0936 232.389 58.3176 231.344 58.3176ZM231.501 56.9064C232.367 56.9064 233.136 56.7272 233.808 56.3688C234.48 55.9955 235.01 55.4878 235.398 54.8456C235.787 54.1886 235.981 53.4344 235.981 52.5832C235.981 51.732 235.787 50.9854 235.398 50.3432C235.01 49.7011 234.48 49.2008 233.808 48.8424C233.136 48.4691 232.367 48.2824 231.501 48.2824C230.65 48.2824 229.881 48.4691 229.194 48.8424C228.522 49.2008 227.991 49.7011 227.603 50.3432C227.23 50.9854 227.043 51.732 227.043 52.5832C227.043 53.4344 227.23 54.1886 227.603 54.8456C227.991 55.4878 228.522 55.9955 229.194 56.3688C229.881 56.7272 230.65 56.9064 231.501 56.9064ZM245.11 58.8776C244.14 58.8776 243.221 58.7432 242.355 58.4744C241.489 58.1907 240.81 57.8398 240.317 57.4216L241.034 56.1672C241.511 56.5256 242.124 56.8392 242.87 57.108C243.617 57.3619 244.401 57.4888 245.222 57.4888C246.342 57.4888 247.149 57.3171 247.642 56.9736C248.134 56.6152 248.381 56.1448 248.381 55.5624C248.381 55.1294 248.239 54.7934 247.955 54.5544C247.686 54.3006 247.328 54.1139 246.88 53.9944C246.432 53.86 245.932 53.748 245.379 53.6584C244.827 53.5688 244.274 53.4643 243.722 53.3448C243.184 53.2254 242.691 53.0536 242.243 52.8296C241.795 52.5907 241.429 52.2696 241.146 51.8664C240.877 51.4632 240.742 50.9256 240.742 50.2536C240.742 49.6115 240.922 49.0366 241.28 48.5288C241.638 48.0211 242.161 47.6254 242.848 47.3416C243.55 47.043 244.401 46.8936 245.402 46.8936C246.163 46.8936 246.925 46.9982 247.686 47.2072C248.448 47.4014 249.075 47.6627 249.568 47.9912L248.874 49.268C248.351 48.9096 247.791 48.6558 247.194 48.5064C246.596 48.3422 245.999 48.26 245.402 48.26C244.341 48.26 243.557 48.4467 243.05 48.82C242.557 49.1784 242.31 49.6414 242.31 50.2088C242.31 50.6568 242.445 51.0078 242.714 51.2616C242.997 51.5155 243.363 51.7171 243.811 51.8664C244.274 52.0008 244.774 52.1128 245.312 52.2024C245.865 52.292 246.41 52.404 246.947 52.5384C247.5 52.6579 248 52.8296 248.448 53.0536C248.911 53.2627 249.277 53.5688 249.546 53.972C249.829 54.3603 249.971 54.8755 249.971 55.5176C249.971 56.2046 249.777 56.8019 249.389 57.3096C249.015 57.8024 248.463 58.1907 247.731 58.4744C247.014 58.7432 246.141 58.8776 245.11 58.8776Z" fill="#0D6CAC"/>
<mask id="path-3-inside-1_1_20" fill="white">
<path d="M48.4688 97.7656H147.203V99.7656H48.4688V97.7656Z"/>
</mask>
<path d="M48.4688 99.7656H147.203V95.7656H48.4688V99.7656Z" fill="#0D6CAC" mask="url(#path-3-inside-1_1_20)"/>
<path d="M177.694 92.5469L168.475 89.4609C168.084 89.3438 167.694 89.3047 167.303 89.3047C166.873 89.3047 166.483 89.3438 166.092 89.4609L156.873 92.5469C156.405 92.7031 156.053 93.1719 156.053 93.7188V95.6328L166.405 92.5469C166.991 92.3516 167.577 92.3516 168.202 92.5469L178.553 95.6328V93.7188C178.553 93.2109 178.202 92.7031 177.694 92.5469ZM166.756 93.7578L156.053 96.9609V105.867C156.053 106.453 156.444 106.961 157.03 107.078L166.483 109.188C166.717 109.266 166.991 109.305 167.303 109.305C167.577 109.305 167.85 109.266 168.084 109.188L177.538 107.078C178.123 106.961 178.553 106.453 178.553 105.867V96.9609L167.811 93.7578C167.459 93.6406 167.108 93.6406 166.756 93.7578ZM161.053 98.2891C161.053 98.4062 160.936 98.5234 160.819 98.5625L157.694 99.4219C157.498 99.5 157.303 99.3438 157.303 99.1094V98.4844C157.303 98.3281 157.381 98.2109 157.498 98.1719L160.623 97.3125C160.819 97.2734 161.053 97.4297 161.053 97.625V98.2891ZM166.678 96.7266C166.678 96.8828 166.561 97 166.444 97.0391L162.694 98.0547C162.498 98.1328 162.303 97.9766 162.303 97.7812V97.1172C162.303 96.9609 162.381 96.8438 162.498 96.8047L166.248 95.7891C166.444 95.75 166.678 95.8672 166.678 96.1016V96.7266ZM173.553 97.625C173.553 97.4297 173.748 97.2734 173.944 97.3125L177.069 98.1719C177.186 98.2109 177.303 98.3281 177.303 98.4844V99.1094C177.303 99.3438 177.069 99.5 176.873 99.4219L173.748 98.5625C173.631 98.5234 173.553 98.4062 173.553 98.2891V97.625ZM167.928 96.1016C167.928 95.8672 168.123 95.75 168.319 95.7891L172.069 96.8047C172.186 96.8438 172.303 96.9609 172.303 97.1172V97.7812C172.303 97.9766 172.069 98.1328 171.873 98.0547L168.123 97.0391C168.006 97 167.928 96.8828 167.928 96.7266V96.1016Z" fill="#0D6CAC"/>
<mask id="path-6-inside-2_1_20" fill="white">
<path d="M187.203 97.7656H285.938V99.7656H187.203V97.7656Z"/>
</mask>
<path d="M187.203 99.7656H285.938V95.7656H187.203V99.7656Z" fill="#0D6CAC" mask="url(#path-6-inside-2_1_20)"/>
<path d="M141.001 138.766V124.206H143.081V136.956H150.964V138.766H141.001ZM157.556 138.89C156.613 138.89 155.781 138.717 155.06 138.37C154.353 138.024 153.798 137.497 153.396 136.79C153.008 136.069 152.814 135.167 152.814 134.086V127.742H154.811V133.857C154.811 134.938 155.067 135.75 155.58 136.29C156.107 136.831 156.842 137.102 157.785 137.102C158.478 137.102 159.082 136.963 159.595 136.686C160.108 136.394 160.503 135.978 160.78 135.438C161.058 134.883 161.196 134.217 161.196 133.441V127.742H163.193V138.766H161.3V135.791L161.612 136.582C161.252 137.317 160.711 137.885 159.99 138.287C159.269 138.689 158.458 138.89 157.556 138.89ZM166.994 138.766V123.332H168.991V138.766H166.994ZM177.713 138.89C176.534 138.89 175.494 138.648 174.593 138.162C173.705 137.677 173.012 137.011 172.513 136.166C172.027 135.32 171.785 134.349 171.785 133.254C171.785 132.158 172.02 131.187 172.492 130.342C172.977 129.496 173.636 128.837 174.468 128.366C175.314 127.88 176.263 127.638 177.317 127.638C178.385 127.638 179.328 127.873 180.146 128.345C180.964 128.816 181.602 129.482 182.06 130.342C182.531 131.187 182.767 132.179 182.767 133.316C182.767 133.399 182.76 133.496 182.746 133.607C182.746 133.718 182.739 133.822 182.725 133.919H173.345V132.484H181.685L180.874 132.983C180.888 132.276 180.742 131.645 180.437 131.09C180.132 130.536 179.709 130.106 179.169 129.801C178.642 129.482 178.025 129.322 177.317 129.322C176.624 129.322 176.007 129.482 175.466 129.801C174.925 130.106 174.502 130.543 174.197 131.111C173.892 131.666 173.74 132.304 173.74 133.025V133.358C173.74 134.093 173.906 134.751 174.239 135.334C174.586 135.902 175.064 136.346 175.674 136.665C176.284 136.984 176.985 137.143 177.775 137.143C178.427 137.143 179.016 137.032 179.543 136.81C180.084 136.589 180.555 136.256 180.957 135.812L182.06 137.102C181.561 137.684 180.937 138.128 180.188 138.433C179.453 138.738 178.628 138.89 177.713 138.89ZM192.078 138.766V136.436L191.974 135.999V132.026C191.974 131.181 191.725 130.529 191.225 130.071C190.74 129.6 190.005 129.364 189.021 129.364C188.369 129.364 187.731 129.475 187.107 129.697C186.483 129.905 185.956 130.189 185.526 130.55L184.694 129.052C185.263 128.594 185.942 128.248 186.733 128.012C187.537 127.762 188.376 127.638 189.249 127.638C190.761 127.638 191.926 128.005 192.744 128.74C193.562 129.475 193.971 130.598 193.971 132.11V138.766H192.078ZM188.459 138.89C187.641 138.89 186.92 138.752 186.296 138.474C185.686 138.197 185.214 137.816 184.881 137.33C184.549 136.831 184.382 136.27 184.382 135.646C184.382 135.049 184.521 134.509 184.798 134.023C185.089 133.538 185.554 133.15 186.192 132.858C186.844 132.567 187.717 132.422 188.813 132.422H192.307V133.857H188.896C187.897 133.857 187.225 134.023 186.878 134.356C186.532 134.689 186.358 135.091 186.358 135.562C186.358 136.103 186.573 136.54 187.003 136.873C187.433 137.192 188.029 137.351 188.792 137.351C189.541 137.351 190.192 137.185 190.747 136.852C191.316 136.519 191.725 136.034 191.974 135.396L192.369 136.769C192.106 137.421 191.641 137.941 190.976 138.329C190.31 138.703 189.471 138.89 188.459 138.89ZM189.374 126.41C188.944 126.41 188.556 126.306 188.209 126.098C187.863 125.89 187.585 125.62 187.377 125.287C187.183 124.954 187.086 124.58 187.086 124.164C187.086 123.748 187.183 123.367 187.377 123.02C187.585 122.673 187.863 122.396 188.209 122.188C188.556 121.98 188.944 121.876 189.374 121.876C189.818 121.876 190.213 121.98 190.56 122.188C190.906 122.396 191.177 122.673 191.371 123.02C191.579 123.367 191.683 123.748 191.683 124.164C191.683 124.58 191.579 124.954 191.371 125.287C191.177 125.62 190.906 125.89 190.56 126.098C190.213 126.306 189.818 126.41 189.374 126.41ZM189.374 125.537C189.776 125.537 190.102 125.405 190.352 125.142C190.615 124.878 190.747 124.552 190.747 124.164C190.747 123.762 190.615 123.429 190.352 123.166C190.102 122.902 189.776 122.77 189.374 122.77C188.986 122.77 188.66 122.902 188.397 123.166C188.147 123.415 188.022 123.748 188.022 124.164C188.022 124.552 188.147 124.878 188.397 125.142C188.646 125.405 188.972 125.537 189.374 125.537Z" fill="#0D6CAC"/>
<path d="M16.744 166.257H24.44V167.588H16.744V166.257ZM16.9104 173.766H15.3712V159.206H25.3552V160.537H16.9104V173.766ZM25.5135 173.766L32.1695 159.206H33.6879L40.3439 173.766H38.7215L32.6063 160.1H33.2303L27.1151 173.766H25.5135ZM28.1343 169.876L28.5919 168.628H37.0575L37.5151 169.876H28.1343ZM44.6171 173.89C43.799 173.89 43.0294 173.71 42.3083 173.35C41.6011 172.989 41.0326 172.476 40.6027 171.81L41.4971 170.77C41.8993 171.353 42.3638 171.797 42.8907 172.102C43.4177 172.407 44.0001 172.559 44.6379 172.559C46.4406 172.559 47.3419 171.491 47.3419 169.356V160.537H42.0171V159.206H48.8603V169.294C48.8603 170.833 48.4998 171.984 47.7787 172.746C47.0715 173.509 46.0177 173.89 44.6171 173.89ZM50.8432 173.766L57.4992 159.206H59.0176L65.6736 173.766H64.0512L57.936 160.1H58.56L52.4448 173.766H50.8432ZM53.464 169.876L53.9216 168.628H62.3872L62.8448 169.876H53.464ZM68.0821 173.766V159.206H73.5317C74.7659 159.206 75.8267 159.407 76.7141 159.809C77.6016 160.197 78.2811 160.766 78.7525 161.514C79.2379 162.249 79.4805 163.144 79.4805 164.198C79.4805 165.224 79.2379 166.111 78.7525 166.86C78.2811 167.595 77.6016 168.163 76.7141 168.566C75.8267 168.954 74.7659 169.148 73.5317 169.148H68.9349L69.6213 168.441V173.766H68.0821ZM78.0245 173.766L74.2805 168.482H75.9445L79.7093 173.766H78.0245ZM69.6213 168.566L68.9349 167.838H73.4901C74.9461 167.838 76.0485 167.519 76.7973 166.881C77.56 166.243 77.9413 165.349 77.9413 164.198C77.9413 163.033 77.56 162.131 76.7973 161.494C76.0485 160.856 74.9461 160.537 73.4901 160.537H68.9349L69.6213 159.809V168.566Z" fill="#0D6CAC"/>
<path d="M230.968 173.89C229.844 173.89 228.846 173.599 227.972 173.017C227.099 172.421 226.412 171.575 225.913 170.479C225.414 169.37 225.164 168.039 225.164 166.486C225.164 164.933 225.414 163.608 225.913 162.513C226.412 161.403 227.099 160.558 227.972 159.975C228.846 159.379 229.844 159.081 230.968 159.081C232.091 159.081 233.089 159.379 233.963 159.975C234.836 160.558 235.523 161.403 236.022 162.513C236.535 163.608 236.792 164.933 236.792 166.486C236.792 168.039 236.535 169.37 236.022 170.479C235.523 171.575 234.836 172.421 233.963 173.017C233.089 173.599 232.091 173.89 230.968 173.89ZM230.968 172.518C231.827 172.518 232.576 172.289 233.214 171.831C233.852 171.36 234.351 170.68 234.712 169.793C235.072 168.891 235.252 167.789 235.252 166.486C235.252 165.182 235.072 164.087 234.712 163.199C234.351 162.298 233.852 161.618 233.214 161.161C232.576 160.689 231.827 160.454 230.968 160.454C230.136 160.454 229.394 160.689 228.742 161.161C228.09 161.618 227.584 162.298 227.224 163.199C226.863 164.087 226.683 165.182 226.683 166.486C226.683 167.789 226.863 168.891 227.224 169.793C227.584 170.68 228.09 171.36 228.742 171.831C229.394 172.289 230.136 172.518 230.968 172.518ZM244.906 173.89C243.616 173.89 242.528 173.606 241.64 173.038C240.753 172.455 240.08 171.623 239.623 170.542C239.165 169.446 238.936 168.136 238.936 166.61C238.936 164.96 239.214 163.581 239.768 162.471C240.337 161.348 241.12 160.502 242.119 159.934C243.117 159.365 244.275 159.081 245.592 159.081C246.244 159.081 246.868 159.143 247.464 159.268C248.061 159.393 248.587 159.594 249.045 159.871L248.442 161.078C248.067 160.828 247.638 160.655 247.152 160.558C246.667 160.447 246.154 160.391 245.613 160.391C244.046 160.391 242.791 160.89 241.848 161.889C240.919 162.887 240.455 164.378 240.455 166.361C240.455 166.666 240.469 167.047 240.496 167.505C240.538 167.949 240.621 168.392 240.746 168.836L240.226 168.441C240.378 167.72 240.677 167.11 241.12 166.61C241.564 166.097 242.119 165.709 242.784 165.446C243.45 165.182 244.178 165.05 244.968 165.05C245.939 165.05 246.792 165.231 247.527 165.591C248.262 165.952 248.837 166.458 249.253 167.11C249.669 167.761 249.877 168.531 249.877 169.418C249.877 170.32 249.662 171.11 249.232 171.79C248.802 172.455 248.206 172.975 247.443 173.35C246.695 173.71 245.849 173.89 244.906 173.89ZM244.843 172.622C245.537 172.622 246.147 172.497 246.674 172.247C247.215 171.984 247.638 171.616 247.943 171.145C248.248 170.659 248.4 170.098 248.4 169.46C248.4 168.503 248.067 167.741 247.402 167.172C246.75 166.603 245.863 166.319 244.739 166.319C243.991 166.319 243.339 166.458 242.784 166.735C242.23 167.013 241.793 167.394 241.474 167.879C241.155 168.351 240.995 168.891 240.995 169.502C240.995 170.029 241.141 170.535 241.432 171.02C241.723 171.491 242.153 171.88 242.722 172.185C243.304 172.476 244.011 172.622 244.843 172.622ZM252.734 165.009C252.429 165.009 252.166 164.898 251.944 164.676C251.736 164.454 251.632 164.184 251.632 163.865C251.632 163.532 251.736 163.262 251.944 163.054C252.166 162.846 252.429 162.742 252.734 162.742C253.04 162.742 253.296 162.846 253.504 163.054C253.726 163.262 253.837 163.532 253.837 163.865C253.837 164.184 253.726 164.454 253.504 164.676C253.296 164.898 253.04 165.009 252.734 165.009ZM252.734 173.87C252.429 173.87 252.166 173.759 251.944 173.537C251.736 173.315 251.632 173.045 251.632 172.726C251.632 172.393 251.736 172.122 251.944 171.914C252.166 171.706 252.429 171.602 252.734 171.602C253.04 171.602 253.296 171.706 253.504 171.914C253.726 172.122 253.837 172.393 253.837 172.726C253.837 173.045 253.726 173.315 253.504 173.537C253.296 173.759 253.04 173.87 252.734 173.87ZM261.822 173.89C260.699 173.89 259.701 173.599 258.827 173.017C257.954 172.421 257.267 171.575 256.768 170.479C256.269 169.37 256.019 168.039 256.019 166.486C256.019 164.933 256.269 163.608 256.768 162.513C257.267 161.403 257.954 160.558 258.827 159.975C259.701 159.379 260.699 159.081 261.822 159.081C262.946 159.081 263.944 159.379 264.818 159.975C265.691 160.558 266.378 161.403 266.877 162.513C267.39 163.608 267.646 164.933 267.646 166.486C267.646 168.039 267.39 169.37 266.877 170.479C266.378 171.575 265.691 172.421 264.818 173.017C263.944 173.599 262.946 173.89 261.822 173.89ZM261.822 172.518C262.682 172.518 263.431 172.289 264.069 171.831C264.707 171.36 265.206 170.68 265.566 169.793C265.927 168.891 266.107 167.789 266.107 166.486C266.107 165.182 265.927 164.087 265.566 163.199C265.206 162.298 264.707 161.618 264.069 161.161C263.431 160.689 262.682 160.454 261.822 160.454C260.99 160.454 260.248 160.689 259.597 161.161C258.945 161.618 258.439 162.298 258.078 163.199C257.718 164.087 257.538 165.182 257.538 166.486C257.538 167.789 257.718 168.891 258.078 169.793C258.439 170.68 258.945 171.36 259.597 171.831C260.248 172.289 260.99 172.518 261.822 172.518ZM269.521 173.766V172.705L275.573 166.777C276.128 166.236 276.544 165.765 276.821 165.362C277.099 164.946 277.286 164.558 277.383 164.198C277.48 163.837 277.529 163.497 277.529 163.178C277.529 162.333 277.237 161.667 276.655 161.182C276.086 160.696 275.241 160.454 274.117 160.454C273.258 160.454 272.495 160.585 271.829 160.849C271.178 161.112 270.616 161.521 270.145 162.076L269.084 161.161C269.652 160.495 270.38 159.982 271.268 159.622C272.155 159.261 273.147 159.081 274.242 159.081C275.227 159.081 276.08 159.24 276.801 159.559C277.522 159.864 278.076 160.315 278.465 160.911C278.867 161.507 279.068 162.208 279.068 163.012C279.068 163.483 278.998 163.948 278.86 164.406C278.735 164.863 278.499 165.349 278.153 165.862C277.82 166.361 277.328 166.929 276.676 167.567L271.122 173.017L270.706 172.434H279.733V173.766H269.521ZM286.017 173.766L292.673 159.206H294.191L300.847 173.766H299.225L293.109 160.1H293.733L287.618 173.766H286.017ZM288.637 169.876L289.095 168.628H297.561L298.018 169.876H288.637ZM303.256 173.766V159.206H304.524L311.18 170.562H310.515L317.108 159.206H318.377V173.766H316.9V161.514H317.254L311.18 171.914H310.452L304.337 161.514H304.732V173.766H303.256Z" fill="#0D6CAC"/>
<path d="M13.936 222.875V221.814L24.0448 209.064L24.2112 209.646H14.0816V208.315H25.6256V209.376L15.5376 222.126L15.3504 221.544H25.8752V222.875H13.936ZM34.7852 223C32.9271 223 31.4642 222.466 30.3964 221.398C29.3287 220.33 28.7948 218.75 28.7948 216.656V208.315H30.334V216.593C30.334 218.313 30.7223 219.582 31.4988 220.4C32.2754 221.218 33.3708 221.627 34.7852 221.627C36.2135 221.627 37.3159 221.218 38.0924 220.4C38.869 219.582 39.2572 218.313 39.2572 216.593V208.315H40.7548V216.656C40.7548 218.75 40.221 220.33 39.1532 221.398C38.0994 222.466 36.6434 223 34.7852 223ZM56.0427 208.315H57.5611V222.875H56.0427V208.315ZM46.9323 222.875H45.3931V208.315H46.9323V222.875ZM56.1883 216.157H46.7659V214.805H56.1883V216.157ZM59.9838 222.875L66.6398 208.315H68.1582L74.8142 222.875H73.1918L67.0766 209.209H67.7006L61.5854 222.875H59.9838ZM62.6046 218.985L63.0622 217.737H71.5278L71.9854 218.985H62.6046ZM77.2228 222.875V208.315H82.6724C83.9065 208.315 84.9673 208.516 85.8548 208.918C86.7422 209.306 87.4217 209.875 87.8932 210.624C88.3785 211.359 88.6212 212.253 88.6212 213.307C88.6212 214.333 88.3785 215.221 87.8932 215.969C87.4217 216.704 86.7422 217.273 85.8548 217.675C84.9673 218.063 83.9065 218.257 82.6724 218.257H78.0756L78.762 217.55V222.875H77.2228ZM87.1652 222.875L83.4212 217.592H85.0852L88.85 222.875H87.1652ZM78.762 217.675L78.0756 216.947H82.6308C84.0868 216.947 85.1892 216.628 85.938 215.99C86.7006 215.352 87.082 214.458 87.082 213.307C87.082 212.142 86.7006 211.241 85.938 210.603C85.1892 209.965 84.0868 209.646 82.6308 209.646H78.0756L78.762 208.918V217.675Z" fill="#0D6CAC"/>
<path d="M239.547 222.875V208.939L240.213 209.646H236.115V208.315H241.045V222.875H239.547ZM244.255 222.875V221.814L250.308 215.886C250.862 215.345 251.278 214.874 251.556 214.472C251.833 214.056 252.02 213.668 252.117 213.307C252.214 212.946 252.263 212.607 252.263 212.288C252.263 211.442 251.972 210.776 251.389 210.291C250.821 209.806 249.975 209.563 248.852 209.563C247.992 209.563 247.229 209.695 246.564 209.958C245.912 210.222 245.35 210.631 244.879 211.185L243.818 210.27C244.387 209.605 245.115 209.092 246.002 208.731C246.89 208.37 247.881 208.19 248.977 208.19C249.961 208.19 250.814 208.35 251.535 208.669C252.256 208.974 252.811 209.424 253.199 210.021C253.601 210.617 253.802 211.317 253.802 212.121C253.802 212.593 253.733 213.057 253.594 213.515C253.469 213.973 253.234 214.458 252.887 214.971C252.554 215.47 252.062 216.039 251.41 216.677L245.857 222.126L245.441 221.544H254.468V222.875H244.255ZM257.47 214.118C257.165 214.118 256.902 214.007 256.68 213.785C256.472 213.564 256.368 213.293 256.368 212.974C256.368 212.641 256.472 212.371 256.68 212.163C256.902 211.955 257.165 211.851 257.47 211.851C257.775 211.851 258.032 211.955 258.24 212.163C258.462 212.371 258.573 212.641 258.573 212.974C258.573 213.293 258.462 213.564 258.24 213.785C258.032 214.007 257.775 214.118 257.47 214.118ZM257.47 222.979C257.165 222.979 256.902 222.868 256.68 222.646C256.472 222.424 256.368 222.154 256.368 221.835C256.368 221.502 256.472 221.232 256.68 221.024C256.902 220.816 257.165 220.712 257.47 220.712C257.775 220.712 258.032 220.816 258.24 221.024C258.462 221.232 258.573 221.502 258.573 221.835C258.573 222.154 258.462 222.424 258.24 222.646C258.032 222.868 257.775 222.979 257.47 222.979ZM263.293 222.875V208.939L263.958 209.646H259.861V208.315H264.79V222.875H263.293ZM273.803 223C272.639 223 271.633 222.833 270.787 222.501C269.955 222.168 269.311 221.689 268.853 221.065C268.409 220.428 268.187 219.679 268.187 218.819C268.187 217.987 268.402 217.28 268.832 216.697C269.276 216.101 269.914 215.644 270.746 215.325C271.592 215.006 272.611 214.846 273.803 214.846C274.982 214.846 275.994 215.006 276.84 215.325C277.686 215.644 278.331 216.101 278.775 216.697C279.232 217.28 279.461 217.987 279.461 218.819C279.461 219.679 279.232 220.428 278.775 221.065C278.317 221.689 277.665 222.168 276.819 222.501C275.974 222.833 274.968 223 273.803 223ZM273.803 221.731C275.093 221.731 276.098 221.468 276.819 220.941C277.554 220.414 277.922 219.7 277.922 218.798C277.922 217.897 277.554 217.19 276.819 216.677C276.098 216.15 275.093 215.886 273.803 215.886C272.514 215.886 271.509 216.15 270.787 216.677C270.066 217.19 269.706 217.897 269.706 218.798C269.706 219.7 270.066 220.414 270.787 220.941C271.509 221.468 272.514 221.731 273.803 221.731ZM273.803 215.699C272.722 215.699 271.8 215.553 271.037 215.262C270.288 214.971 269.713 214.555 269.311 214.014C268.909 213.46 268.707 212.801 268.707 212.038C268.707 211.234 268.915 210.548 269.331 209.979C269.761 209.397 270.358 208.953 271.12 208.648C271.883 208.343 272.777 208.19 273.803 208.19C274.83 208.19 275.724 208.343 276.487 208.648C277.263 208.953 277.866 209.397 278.296 209.979C278.726 210.548 278.941 211.234 278.941 212.038C278.941 212.801 278.74 213.46 278.338 214.014C277.936 214.555 277.346 214.971 276.57 215.262C275.807 215.553 274.885 215.699 273.803 215.699ZM273.803 214.701C274.941 214.701 275.828 214.465 276.466 213.993C277.104 213.522 277.423 212.891 277.423 212.101C277.423 211.269 277.09 210.624 276.424 210.166C275.773 209.695 274.899 209.459 273.803 209.459C272.708 209.459 271.834 209.695 271.183 210.166C270.531 210.624 270.205 211.262 270.205 212.08C270.205 212.884 270.517 213.522 271.141 213.993C271.779 214.465 272.666 214.701 273.803 214.701ZM285.938 222.875L292.594 208.315H294.113L300.769 222.875H299.146L293.031 209.209H293.655L287.54 222.875H285.938ZM288.559 218.985L289.017 217.737H297.482L297.94 218.985H288.559ZM303.177 222.875V208.315H304.446L311.102 219.672H310.437L317.03 208.315H318.299V222.875H316.822V210.624H317.176L311.102 221.024H310.374L304.259 210.624H304.654V222.875H303.177Z" fill="#0D6CAC"/>
<path d="M13.0416 271.984L19.6976 257.424H21.216L27.872 271.984H26.2496L20.1344 258.319H20.7584L14.6432 271.984H13.0416ZM15.6624 268.095L16.12 266.847H24.5856L25.0432 268.095H15.6624ZM34.295 272.109C33.2134 272.109 32.1734 271.936 31.175 271.589C30.1904 271.229 29.4278 270.771 28.887 270.216L29.4902 269.031C30.0032 269.53 30.6896 269.953 31.5494 270.3C32.423 270.632 33.3382 270.799 34.295 270.799C35.2102 270.799 35.952 270.688 36.5206 270.466C37.103 270.23 37.5259 269.918 37.7894 269.53C38.0667 269.142 38.2054 268.712 38.2054 268.24C38.2054 267.672 38.039 267.214 37.7062 266.868C37.3872 266.521 36.9643 266.251 36.4374 266.056C35.9104 265.848 35.328 265.668 34.6902 265.516C34.0523 265.363 33.4144 265.204 32.7766 265.037C32.1387 264.857 31.5494 264.621 31.0086 264.33C30.4816 264.039 30.0518 263.657 29.719 263.186C29.4 262.701 29.2406 262.07 29.2406 261.293C29.2406 260.572 29.4278 259.913 29.8022 259.317C30.1904 258.707 30.7798 258.222 31.5702 257.861C32.3606 257.487 33.3728 257.3 34.607 257.3C35.4251 257.3 36.2363 257.417 37.0406 257.653C37.8448 257.875 38.5382 258.187 39.1206 258.589L38.6006 259.816C37.9766 259.4 37.311 259.095 36.6038 258.901C35.9104 258.707 35.2379 258.61 34.5862 258.61C33.7126 258.61 32.9915 258.728 32.423 258.964C31.8544 259.199 31.4315 259.518 31.1542 259.92C30.8907 260.309 30.759 260.752 30.759 261.252C30.759 261.82 30.9184 262.278 31.2374 262.624C31.5702 262.971 32 263.241 32.527 263.436C33.0678 263.63 33.6571 263.803 34.295 263.956C34.9328 264.108 35.5638 264.275 36.1878 264.455C36.8256 264.635 37.408 264.871 37.935 265.162C38.4758 265.439 38.9056 265.814 39.2246 266.285C39.5574 266.757 39.7238 267.374 39.7238 268.136C39.7238 268.844 39.5296 269.502 39.1414 270.112C38.7531 270.709 38.1568 271.194 37.3526 271.568C36.5622 271.929 35.543 272.109 34.295 272.109ZM40.7478 271.984L47.4038 257.424H48.9222L55.5782 271.984H53.9558L47.8406 258.319H48.4646L42.3494 271.984H40.7478ZM43.3686 268.095L43.8262 266.847H52.2918L52.7494 268.095H43.3686ZM57.9868 271.984V257.424H63.4364C64.6706 257.424 65.7314 257.625 66.6188 258.028C67.5063 258.416 68.1858 258.984 68.6572 259.733C69.1426 260.468 69.3852 261.363 69.3852 262.416C69.3852 263.443 69.1426 264.33 68.6572 265.079C68.1858 265.814 67.5063 266.382 66.6188 266.784C65.7314 267.173 64.6706 267.367 63.4364 267.367H58.8396L59.526 266.66V271.984H57.9868ZM67.9292 271.984L64.1852 266.701H65.8492L69.614 271.984H67.9292ZM59.526 266.784L58.8396 266.056H63.3948C64.8508 266.056 65.9532 265.737 66.702 265.1C67.4647 264.462 67.846 263.567 67.846 262.416C67.846 261.252 67.4647 260.35 66.702 259.712C65.9532 259.075 64.8508 258.756 63.3948 258.756H58.8396L59.526 258.028V266.784Z" fill="#0D6CAC"/>
<path d="M233.83 271.984V258.048L234.496 258.756H230.398V257.424H235.328V271.984H233.83ZM243.155 272.109C242.102 272.109 241.103 271.943 240.16 271.61C239.231 271.263 238.482 270.806 237.914 270.237L238.642 269.052C239.113 269.537 239.744 269.939 240.535 270.258C241.339 270.577 242.212 270.736 243.155 270.736C244.362 270.736 245.284 270.473 245.922 269.946C246.574 269.419 246.899 268.712 246.899 267.824C246.899 266.937 246.58 266.23 245.943 265.703C245.319 265.176 244.327 264.912 242.968 264.912H241.928V263.81L246.421 258.173L246.629 258.756H238.517V257.424H247.877V258.485L243.384 264.122L242.656 263.644H243.218C244.965 263.644 246.268 264.032 247.128 264.808C248.002 265.585 248.439 266.583 248.439 267.804C248.439 268.622 248.244 269.357 247.856 270.008C247.468 270.66 246.879 271.173 246.088 271.548C245.312 271.922 244.334 272.109 243.155 272.109ZM251.672 263.228C251.367 263.228 251.103 263.117 250.882 262.895C250.674 262.673 250.57 262.403 250.57 262.084C250.57 261.751 250.674 261.48 250.882 261.272C251.103 261.064 251.367 260.96 251.672 260.96C251.977 260.96 252.234 261.064 252.442 261.272C252.663 261.48 252.774 261.751 252.774 262.084C252.774 262.403 252.663 262.673 252.442 262.895C252.234 263.117 251.977 263.228 251.672 263.228ZM251.672 272.088C251.367 272.088 251.103 271.977 250.882 271.756C250.674 271.534 250.57 271.263 250.57 270.944C250.57 270.612 250.674 270.341 250.882 270.133C251.103 269.925 251.367 269.821 251.672 269.821C251.977 269.821 252.234 269.925 252.442 270.133C252.663 270.341 252.774 270.612 252.774 270.944C252.774 271.263 252.663 271.534 252.442 271.756C252.234 271.977 251.977 272.088 251.672 272.088ZM254.707 268.157V267.076L262.424 257.424H264.088L256.433 267.076L255.622 266.826H267.333V268.157H254.707ZM262.923 271.984V268.157L262.965 266.826V263.456H264.421V271.984H262.923ZM274.444 272.109C273.279 272.109 272.274 271.943 271.428 271.61C270.596 271.277 269.951 270.799 269.494 270.175C269.05 269.537 268.828 268.788 268.828 267.928C268.828 267.096 269.043 266.389 269.473 265.807C269.917 265.211 270.554 264.753 271.386 264.434C272.232 264.115 273.252 263.956 274.444 263.956C275.623 263.956 276.635 264.115 277.481 264.434C278.327 264.753 278.972 265.211 279.415 265.807C279.873 266.389 280.102 267.096 280.102 267.928C280.102 268.788 279.873 269.537 279.415 270.175C278.958 270.799 278.306 271.277 277.46 271.61C276.614 271.943 275.609 272.109 274.444 272.109ZM274.444 270.84C275.734 270.84 276.739 270.577 277.46 270.05C278.195 269.523 278.562 268.809 278.562 267.908C278.562 267.006 278.195 266.299 277.46 265.786C276.739 265.259 275.734 264.996 274.444 264.996C273.154 264.996 272.149 265.259 271.428 265.786C270.707 266.299 270.346 267.006 270.346 267.908C270.346 268.809 270.707 269.523 271.428 270.05C272.149 270.577 273.154 270.84 274.444 270.84ZM274.444 264.808C273.362 264.808 272.44 264.663 271.678 264.372C270.929 264.08 270.353 263.664 269.951 263.124C269.549 262.569 269.348 261.91 269.348 261.148C269.348 260.343 269.556 259.657 269.972 259.088C270.402 258.506 270.998 258.062 271.761 257.757C272.524 257.452 273.418 257.3 274.444 257.3C275.47 257.3 276.365 257.452 277.127 257.757C277.904 258.062 278.507 258.506 278.937 259.088C279.367 259.657 279.582 260.343 279.582 261.148C279.582 261.91 279.381 262.569 278.978 263.124C278.576 263.664 277.987 264.08 277.21 264.372C276.448 264.663 275.526 264.808 274.444 264.808ZM274.444 263.81C275.581 263.81 276.469 263.574 277.106 263.103C277.744 262.631 278.063 262 278.063 261.21C278.063 260.378 277.73 259.733 277.065 259.276C276.413 258.804 275.54 258.568 274.444 258.568C273.349 258.568 272.475 258.804 271.823 259.276C271.172 259.733 270.846 260.371 270.846 261.189C270.846 261.993 271.158 262.631 271.782 263.103C272.42 263.574 273.307 263.81 274.444 263.81ZM286.579 271.984L293.235 257.424H294.754L301.41 271.984H299.787L293.672 258.319H294.296L288.181 271.984H286.579ZM289.2 268.095L289.658 266.847H298.123L298.581 268.095H289.2ZM303.818 271.984V257.424H305.087L311.743 268.781H311.077L317.671 257.424H318.94V271.984H317.463V259.733H317.816L311.743 270.133H311.015L304.9 259.733H305.295V271.984H303.818Z" fill="#0D6CAC"/>
<path d="M15.3712 321.094V306.534H16.64L23.296 317.891H22.6304L29.224 306.534H30.4928V321.094H29.016V308.843H29.3696L23.296 319.243H22.568L16.4528 308.843H16.848V321.094H15.3712ZM32.9072 321.094L39.5632 306.534H41.0816L47.7376 321.094H46.1152L40 307.428H40.624L34.5088 321.094H32.9072ZM35.528 317.204L35.9856 315.956H44.4512L44.9088 317.204H35.528ZM56.3287 321.219C55.2193 321.219 54.1932 321.038 53.2503 320.678C52.3212 320.303 51.51 319.783 50.8167 319.118C50.1372 318.452 49.6033 317.669 49.2151 316.767C48.8407 315.866 48.6535 314.881 48.6535 313.814C48.6535 312.746 48.8407 311.761 49.2151 310.86C49.6033 309.959 50.1441 309.175 50.8375 308.51C51.5308 307.844 52.342 307.331 53.2711 306.971C54.214 306.596 55.2401 306.409 56.3495 306.409C57.4588 306.409 58.4711 306.582 59.3863 306.929C60.3153 307.276 61.1057 307.803 61.7575 308.51L60.8007 309.487C60.1905 308.877 59.518 308.44 58.7831 308.177C58.0481 307.913 57.2577 307.782 56.4119 307.782C55.5105 307.782 54.6785 307.934 53.9159 308.239C53.1671 308.531 52.5084 308.953 51.9399 309.508C51.3852 310.049 50.9484 310.687 50.6295 311.422C50.3244 312.143 50.1719 312.94 50.1719 313.814C50.1719 314.673 50.3244 315.471 50.6295 316.206C50.9484 316.941 51.3852 317.585 51.9399 318.14C52.5084 318.681 53.1671 319.104 53.9159 319.409C54.6785 319.7 55.5036 319.846 56.3911 319.846C57.2231 319.846 58.0065 319.721 58.7415 319.471C59.4903 319.222 60.1767 318.799 60.8007 318.203L61.6743 319.367C60.9809 319.977 60.1697 320.442 59.2407 320.761C58.3116 321.066 57.3409 321.219 56.3287 321.219ZM60.1975 319.18V313.814H61.6743V319.367L60.1975 319.18ZM76.6802 306.534H78.1986V321.094H76.6802V306.534ZM67.5698 321.094H66.0306V306.534H67.5698V321.094ZM76.8258 314.375H67.4034V313.023H76.8258V314.375ZM82.9509 321.094V306.534H88.4005C89.6346 306.534 90.6954 306.735 91.5829 307.137C92.4703 307.525 93.1498 308.094 93.6213 308.843C94.1066 309.577 94.3493 310.472 94.3493 311.526C94.3493 312.552 94.1066 313.439 93.6213 314.188C93.1498 314.923 92.4703 315.492 91.5829 315.894C90.6954 316.282 89.6346 316.476 88.4005 316.476H83.8037L84.4901 315.769V321.094H82.9509ZM92.8933 321.094L89.1493 315.811H90.8133L94.5781 321.094H92.8933ZM84.4901 315.894L83.8037 315.166H88.3589C89.8149 315.166 90.9173 314.847 91.6661 314.209C92.4287 313.571 92.8101 312.677 92.8101 311.526C92.8101 310.361 92.4287 309.46 91.6661 308.822C90.9173 308.184 89.8149 307.865 88.3589 307.865H83.8037L84.4901 307.137V315.894ZM97.9821 321.094V306.534H99.5213V321.094H97.9821ZM104.259 321.094V306.534H110.54C112.163 306.534 113.418 306.86 114.305 307.511C115.206 308.163 115.657 309.085 115.657 310.278C115.657 311.068 115.47 311.734 115.095 312.275C114.735 312.815 114.236 313.224 113.598 313.502C112.974 313.779 112.287 313.918 111.539 313.918L111.892 313.419C112.821 313.419 113.619 313.564 114.284 313.855C114.964 314.133 115.491 314.556 115.865 315.124C116.239 315.679 116.427 316.372 116.427 317.204C116.427 318.438 115.969 319.395 115.054 320.075C114.153 320.754 112.787 321.094 110.956 321.094H104.259ZM105.798 319.825H110.935C112.211 319.825 113.189 319.61 113.868 319.18C114.548 318.736 114.887 318.036 114.887 317.079C114.887 316.136 114.548 315.45 113.868 315.02C113.189 314.576 112.211 314.355 110.935 314.355H105.631V313.086H110.436C111.601 313.086 112.502 312.864 113.14 312.42C113.792 311.976 114.118 311.318 114.118 310.444C114.118 309.557 113.792 308.898 113.14 308.468C112.502 308.024 111.601 307.803 110.436 307.803H105.798V319.825Z" fill="#0D6CAC"/>
<path d="M245.349 321.094V307.158L246.014 307.865H241.917V306.534H246.846V321.094H245.349ZM256.297 321.219C255.007 321.219 253.918 320.934 253.031 320.366C252.143 319.783 251.471 318.951 251.013 317.87C250.556 316.774 250.327 315.464 250.327 313.939C250.327 312.288 250.604 310.909 251.159 309.799C251.727 308.676 252.511 307.83 253.509 307.262C254.508 306.693 255.666 306.409 256.983 306.409C257.635 306.409 258.259 306.471 258.855 306.596C259.451 306.721 259.978 306.922 260.436 307.199L259.833 308.406C259.458 308.156 259.028 307.983 258.543 307.886C258.058 307.775 257.545 307.719 257.004 307.719C255.437 307.719 254.182 308.219 253.239 309.217C252.31 310.215 251.845 311.706 251.845 313.689C251.845 313.994 251.859 314.375 251.887 314.833C251.929 315.277 252.012 315.72 252.137 316.164L251.617 315.769C251.769 315.048 252.067 314.438 252.511 313.939C252.955 313.425 253.509 313.037 254.175 312.774C254.841 312.51 255.569 312.379 256.359 312.379C257.33 312.379 258.182 312.559 258.917 312.919C259.652 313.28 260.228 313.786 260.644 314.438C261.06 315.089 261.268 315.859 261.268 316.747C261.268 317.648 261.053 318.438 260.623 319.118C260.193 319.783 259.597 320.303 258.834 320.678C258.085 321.038 257.239 321.219 256.297 321.219ZM256.234 319.95C256.927 319.95 257.538 319.825 258.065 319.575C258.605 319.312 259.028 318.944 259.333 318.473C259.638 317.988 259.791 317.426 259.791 316.788C259.791 315.831 259.458 315.069 258.793 314.5C258.141 313.932 257.253 313.647 256.13 313.647C255.381 313.647 254.73 313.786 254.175 314.063C253.62 314.341 253.183 314.722 252.865 315.207C252.546 315.679 252.386 316.22 252.386 316.83C252.386 317.357 252.532 317.863 252.823 318.348C253.114 318.82 253.544 319.208 254.113 319.513C254.695 319.804 255.402 319.95 256.234 319.95ZM264.125 312.337C263.82 312.337 263.557 312.226 263.335 312.004C263.127 311.782 263.023 311.512 263.023 311.193C263.023 310.86 263.127 310.59 263.335 310.382C263.557 310.174 263.82 310.07 264.125 310.07C264.43 310.07 264.687 310.174 264.895 310.382C265.117 310.59 265.228 310.86 265.228 311.193C265.228 311.512 265.117 311.782 264.895 312.004C264.687 312.226 264.43 312.337 264.125 312.337ZM264.125 321.198C263.82 321.198 263.557 321.087 263.335 320.865C263.127 320.643 263.023 320.373 263.023 320.054C263.023 319.721 263.127 319.451 263.335 319.243C263.557 319.035 263.82 318.931 264.125 318.931C264.43 318.931 264.687 319.035 264.895 319.243C265.117 319.451 265.228 319.721 265.228 320.054C265.228 320.373 265.117 320.643 264.895 320.865C264.687 321.087 264.43 321.198 264.125 321.198ZM269.947 321.094V307.158L270.613 307.865H266.515V306.534H271.445V321.094H269.947ZM277.463 321.094V307.158L278.129 307.865H274.031V306.534H278.961V321.094H277.463ZM286.845 321.094L293.501 306.534H295.019L301.675 321.094H300.053L293.938 307.428H294.562L288.446 321.094H286.845ZM289.466 317.204L289.923 315.956H298.389L298.846 317.204H289.466ZM304.084 321.094V306.534H305.353L312.009 317.891H311.343L317.937 306.534H319.205V321.094H317.729V308.843H318.082L312.009 319.243H311.281L305.165 308.843H305.561V321.094H304.084Z" fill="#0D6CAC"/>
<path d="M15.3712 370.203V355.643H16.9104V370.203H15.3712ZM25.6622 370.328C24.5806 370.328 23.5406 370.155 22.5422 369.808C21.5576 369.447 20.795 368.99 20.2542 368.435L20.8574 367.25C21.3704 367.749 22.0568 368.172 22.9166 368.518C23.7902 368.851 24.7054 369.018 25.6622 369.018C26.5774 369.018 27.3192 368.907 27.8878 368.685C28.4702 368.449 28.8931 368.137 29.1566 367.749C29.4339 367.36 29.5726 366.931 29.5726 366.459C29.5726 365.891 29.4062 365.433 29.0734 365.086C28.7544 364.74 28.3315 364.469 27.8046 364.275C27.2776 364.067 26.6952 363.887 26.0574 363.734C25.4195 363.582 24.7816 363.422 24.1438 363.256C23.5059 363.076 22.9166 362.84 22.3758 362.549C21.8488 362.258 21.419 361.876 21.0862 361.405C20.7672 360.919 20.6078 360.288 20.6078 359.512C20.6078 358.791 20.795 358.132 21.1694 357.536C21.5576 356.926 22.147 356.44 22.9374 356.08C23.7278 355.706 24.74 355.518 25.9742 355.518C26.7923 355.518 27.6035 355.636 28.4078 355.872C29.212 356.094 29.9054 356.406 30.4878 356.808L29.9678 358.035C29.3438 357.619 28.6782 357.314 27.971 357.12C27.2776 356.926 26.6051 356.829 25.9534 356.829C25.0798 356.829 24.3587 356.947 23.7902 357.182C23.2216 357.418 22.7987 357.737 22.5214 358.139C22.2579 358.527 22.1262 358.971 22.1262 359.47C22.1262 360.039 22.2856 360.496 22.6046 360.843C22.9374 361.19 23.3672 361.46 23.8942 361.654C24.435 361.848 25.0243 362.022 25.6622 362.174C26.3 362.327 26.931 362.493 27.555 362.674C28.1928 362.854 28.7752 363.09 29.3022 363.381C29.843 363.658 30.2728 364.032 30.5918 364.504C30.9246 364.975 31.091 365.592 31.091 366.355C31.091 367.062 30.8968 367.721 30.5086 368.331C30.1203 368.927 29.524 369.413 28.7198 369.787C27.9294 370.148 26.9102 370.328 25.6622 370.328ZM45.0942 355.643H46.6126V370.203H45.0942V355.643ZM35.9838 370.203H34.4446V355.643H35.9838V370.203ZM45.2398 363.485H35.8174V362.133H45.2398V363.485ZM49.0353 370.203L55.6913 355.643H57.2097L63.8657 370.203H62.2433L56.1281 356.538H56.7521L50.6369 370.203H49.0353ZM51.6561 366.314L52.1137 365.066H60.5793L61.0369 366.314H51.6561Z" fill="#0D6CAC"/>
<path d="M232.13 370.203V356.267L232.796 356.974H228.698V355.643H233.628V370.203H232.13ZM242.641 370.328C241.476 370.328 240.471 370.162 239.625 369.829C238.793 369.496 238.148 369.018 237.691 368.394C237.247 367.756 237.025 367.007 237.025 366.147C237.025 365.315 237.24 364.608 237.67 364.026C238.113 363.429 238.751 362.972 239.583 362.653C240.429 362.334 241.448 362.174 242.641 362.174C243.82 362.174 244.832 362.334 245.678 362.653C246.524 362.972 247.168 363.429 247.612 364.026C248.07 364.608 248.299 365.315 248.299 366.147C248.299 367.007 248.07 367.756 247.612 368.394C247.155 369.018 246.503 369.496 245.657 369.829C244.811 370.162 243.806 370.328 242.641 370.328ZM242.641 369.059C243.931 369.059 244.936 368.796 245.657 368.269C246.392 367.742 246.759 367.028 246.759 366.126C246.759 365.225 246.392 364.518 245.657 364.005C244.936 363.478 243.931 363.214 242.641 363.214C241.351 363.214 240.346 363.478 239.625 364.005C238.904 364.518 238.543 365.225 238.543 366.126C238.543 367.028 238.904 367.742 239.625 368.269C240.346 368.796 241.351 369.059 242.641 369.059ZM242.641 363.027C241.559 363.027 240.637 362.882 239.875 362.59C239.126 362.299 238.55 361.883 238.148 361.342C237.746 360.788 237.545 360.129 237.545 359.366C237.545 358.562 237.753 357.876 238.169 357.307C238.599 356.725 239.195 356.281 239.958 355.976C240.72 355.671 241.615 355.518 242.641 355.518C243.667 355.518 244.561 355.671 245.324 355.976C246.101 356.281 246.704 356.725 247.134 357.307C247.564 357.876 247.779 358.562 247.779 359.366C247.779 360.129 247.577 360.788 247.175 361.342C246.773 361.883 246.184 362.299 245.407 362.59C244.645 362.882 243.723 363.027 242.641 363.027ZM242.641 362.029C243.778 362.029 244.665 361.793 245.303 361.322C245.941 360.85 246.26 360.219 246.26 359.429C246.26 358.597 245.927 357.952 245.262 357.494C244.61 357.023 243.736 356.787 242.641 356.787C241.545 356.787 240.672 357.023 240.02 357.494C239.368 357.952 239.043 358.59 239.043 359.408C239.043 360.212 239.355 360.85 239.979 361.322C240.616 361.793 241.504 362.029 242.641 362.029ZM251.495 361.446C251.19 361.446 250.927 361.335 250.705 361.114C250.497 360.892 250.393 360.621 250.393 360.302C250.393 359.97 250.497 359.699 250.705 359.491C250.927 359.283 251.19 359.179 251.495 359.179C251.8 359.179 252.057 359.283 252.265 359.491C252.487 359.699 252.598 359.97 252.598 360.302C252.598 360.621 252.487 360.892 252.265 361.114C252.057 361.335 251.8 361.446 251.495 361.446ZM251.495 370.307C251.19 370.307 250.927 370.196 250.705 369.974C250.497 369.752 250.393 369.482 250.393 369.163C250.393 368.83 250.497 368.56 250.705 368.352C250.927 368.144 251.19 368.04 251.495 368.04C251.8 368.04 252.057 368.144 252.265 368.352C252.487 368.56 252.598 368.83 252.598 369.163C252.598 369.482 252.487 369.752 252.265 369.974C252.057 370.196 251.8 370.307 251.495 370.307ZM260.583 370.328C259.46 370.328 258.462 370.037 257.588 369.454C256.714 368.858 256.028 368.012 255.529 366.917C255.03 365.807 254.78 364.476 254.78 362.923C254.78 361.37 255.03 360.046 255.529 358.95C256.028 357.841 256.714 356.995 257.588 356.413C258.462 355.816 259.46 355.518 260.583 355.518C261.706 355.518 262.705 355.816 263.578 356.413C264.452 356.995 265.138 357.841 265.638 358.95C266.151 360.046 266.407 361.37 266.407 362.923C266.407 364.476 266.151 365.807 265.638 366.917C265.138 368.012 264.452 368.858 263.578 369.454C262.705 370.037 261.706 370.328 260.583 370.328ZM260.583 368.955C261.443 368.955 262.192 368.726 262.83 368.269C263.468 367.797 263.967 367.118 264.327 366.23C264.688 365.329 264.868 364.227 264.868 362.923C264.868 361.62 264.688 360.524 264.327 359.637C263.967 358.735 263.468 358.056 262.83 357.598C262.192 357.127 261.443 356.891 260.583 356.891C259.751 356.891 259.009 357.127 258.358 357.598C257.706 358.056 257.2 358.735 256.839 359.637C256.479 360.524 256.298 361.62 256.298 362.923C256.298 364.227 256.479 365.329 256.839 366.23C257.2 367.118 257.706 367.797 258.358 368.269C259.009 368.726 259.751 368.955 260.583 368.955ZM274.085 370.328C272.92 370.328 271.915 370.162 271.069 369.829C270.237 369.496 269.592 369.018 269.134 368.394C268.691 367.756 268.469 367.007 268.469 366.147C268.469 365.315 268.684 364.608 269.114 364.026C269.557 363.429 270.195 362.972 271.027 362.653C271.873 362.334 272.892 362.174 274.085 362.174C275.263 362.174 276.276 362.334 277.122 362.653C277.967 362.972 278.612 363.429 279.056 364.026C279.514 364.608 279.742 365.315 279.742 366.147C279.742 367.007 279.514 367.756 279.056 368.394C278.598 369.018 277.947 369.496 277.101 369.829C276.255 370.162 275.25 370.328 274.085 370.328ZM274.085 369.059C275.374 369.059 276.38 368.796 277.101 368.269C277.836 367.742 278.203 367.028 278.203 366.126C278.203 365.225 277.836 364.518 277.101 364.005C276.38 363.478 275.374 363.214 274.085 363.214C272.795 363.214 271.79 363.478 271.069 364.005C270.348 364.518 269.987 365.225 269.987 366.126C269.987 367.028 270.348 367.742 271.069 368.269C271.79 368.796 272.795 369.059 274.085 369.059ZM274.085 363.027C273.003 363.027 272.081 362.882 271.318 362.59C270.57 362.299 269.994 361.883 269.592 361.342C269.19 360.788 268.989 360.129 268.989 359.366C268.989 358.562 269.197 357.876 269.613 357.307C270.043 356.725 270.639 356.281 271.402 355.976C272.164 355.671 273.059 355.518 274.085 355.518C275.111 355.518 276.005 355.671 276.768 355.976C277.544 356.281 278.148 356.725 278.578 357.307C279.007 357.876 279.222 358.562 279.222 359.366C279.222 360.129 279.021 360.788 278.619 361.342C278.217 361.883 277.628 362.299 276.851 362.59C276.088 362.882 275.166 363.027 274.085 363.027ZM274.085 362.029C275.222 362.029 276.109 361.793 276.747 361.322C277.385 360.85 277.704 360.219 277.704 359.429C277.704 358.597 277.371 357.952 276.706 357.494C276.054 357.023 275.18 356.787 274.085 356.787C272.989 356.787 272.116 357.023 271.464 357.494C270.812 357.952 270.486 358.59 270.486 359.408C270.486 360.212 270.798 360.85 271.422 361.322C272.06 361.793 272.948 362.029 274.085 362.029ZM286.22 370.203L292.876 355.643H294.394L301.05 370.203H299.428L293.313 356.538H293.937L287.821 370.203H286.22ZM288.841 366.314L289.298 365.066H297.764L298.221 366.314H288.841ZM303.459 370.203V355.643H304.728L311.384 367H310.718L317.312 355.643H318.58V370.203H317.104V357.952H317.457L311.384 368.352H310.656L304.54 357.952H304.936V370.203H303.459Z" fill="#0D6CAC"/>
<path d="M16.9312 419.437C16.1131 419.437 15.3435 419.257 14.6224 418.896C13.9152 418.536 13.3467 418.023 12.9168 417.357L13.8112 416.317C14.2133 416.9 14.6779 417.343 15.2048 417.648C15.7317 417.954 16.3141 418.106 16.952 418.106C18.7547 418.106 19.656 417.038 19.656 414.903V406.084H14.3312V404.752H21.1744V414.841C21.1744 416.38 20.8139 417.531 20.0928 418.293C19.3856 419.056 18.3317 419.437 16.9312 419.437ZM31.6571 419.437C29.799 419.437 28.336 418.903 27.2683 417.836C26.2006 416.768 25.6667 415.187 25.6667 413.093V404.752H27.2059V413.031C27.2059 414.75 27.5942 416.019 28.3707 416.837C29.1472 417.655 30.2427 418.064 31.6571 418.064C33.0854 418.064 34.1878 417.655 34.9643 416.837C35.7408 416.019 36.1291 414.75 36.1291 413.031V404.752H37.6267V413.093C37.6267 415.187 37.0928 416.768 36.0251 417.836C34.9712 418.903 33.5152 419.437 31.6571 419.437ZM42.2649 419.312V404.752H43.5337L50.1897 416.109H49.5241L56.1177 404.752H57.3865V419.312H55.9097V407.061H56.2633L50.1897 417.461H49.4617L43.3465 407.061H43.7417V419.312H42.2649ZM62.1306 419.312V404.752H63.3994L70.0554 416.109H69.3898L75.9834 404.752H77.2522V419.312H75.7754V407.061H76.129L70.0554 417.461H69.3274L63.2122 407.061H63.6074V419.312H62.1306ZM79.6666 419.312L86.3226 404.752H87.841L94.497 419.312H92.8746L86.7594 405.647H87.3834L81.2682 419.312H79.6666ZM82.2874 415.423L82.745 414.175H91.2106L91.6682 415.423H82.2874ZM107.555 404.752H109.074V419.312H107.555V404.752ZM98.4448 419.312H96.9056V404.752H98.4448V419.312ZM107.701 412.594H98.2784V411.242H107.701V412.594Z" fill="#0D6CAC"/>
<path d="M238.879 419.312V405.377L239.544 406.084H235.447V404.752H240.376V419.312H238.879ZM246.394 419.312V405.377L247.06 406.084H242.962V404.752H247.892V419.312H246.394ZM252.495 410.556C252.19 410.556 251.927 410.445 251.705 410.223C251.497 410.001 251.393 409.731 251.393 409.412C251.393 409.079 251.497 408.809 251.705 408.6C251.927 408.392 252.19 408.288 252.495 408.288C252.8 408.288 253.057 408.392 253.265 408.6C253.487 408.809 253.598 409.079 253.598 409.412C253.598 409.731 253.487 410.001 253.265 410.223C253.057 410.445 252.8 410.556 252.495 410.556ZM252.495 419.417C252.19 419.417 251.927 419.306 251.705 419.084C251.497 418.862 251.393 418.591 251.393 418.273C251.393 417.94 251.497 417.669 251.705 417.461C251.927 417.253 252.19 417.149 252.495 417.149C252.8 417.149 253.057 417.253 253.265 417.461C253.487 417.669 253.598 417.94 253.598 418.273C253.598 418.591 253.487 418.862 253.265 419.084C253.057 419.306 252.8 419.417 252.495 419.417ZM255.53 415.485V414.404L263.247 404.752H264.911L257.257 414.404L256.446 414.154H268.156V415.485H255.53ZM263.746 419.312V415.485L263.788 414.154V410.784H265.244V419.312H263.746ZM275.501 419.437C274.212 419.437 273.123 419.153 272.236 418.585C271.348 418.002 270.676 417.17 270.218 416.089C269.76 414.993 269.532 413.683 269.532 412.157C269.532 410.507 269.809 409.127 270.364 408.018C270.932 406.895 271.716 406.049 272.714 405.481C273.712 404.912 274.87 404.628 276.188 404.628C276.839 404.628 277.463 404.69 278.06 404.815C278.656 404.94 279.183 405.141 279.64 405.418L279.037 406.625C278.663 406.375 278.233 406.202 277.748 406.104C277.262 405.994 276.749 405.938 276.208 405.938C274.641 405.938 273.387 406.437 272.444 407.436C271.515 408.434 271.05 409.925 271.05 411.908C271.05 412.213 271.064 412.594 271.092 413.052C271.133 413.495 271.216 413.939 271.341 414.383L270.821 413.988C270.974 413.267 271.272 412.656 271.716 412.157C272.159 411.644 272.714 411.256 273.38 410.993C274.045 410.729 274.773 410.597 275.564 410.597C276.534 410.597 277.387 410.778 278.122 411.138C278.857 411.499 279.432 412.005 279.848 412.656C280.264 413.308 280.472 414.078 280.472 414.965C280.472 415.867 280.257 416.657 279.828 417.336C279.398 418.002 278.801 418.522 278.039 418.896C277.29 419.257 276.444 419.437 275.501 419.437ZM275.439 418.168C276.132 418.168 276.742 418.044 277.269 417.794C277.81 417.531 278.233 417.163 278.538 416.692C278.843 416.206 278.996 415.645 278.996 415.007C278.996 414.05 278.663 413.287 277.997 412.719C277.345 412.15 276.458 411.866 275.335 411.866C274.586 411.866 273.934 412.005 273.38 412.282C272.825 412.559 272.388 412.941 272.069 413.426C271.75 413.898 271.591 414.438 271.591 415.048C271.591 415.575 271.736 416.082 272.028 416.567C272.319 417.038 272.749 417.427 273.317 417.732C273.9 418.023 274.607 418.168 275.439 418.168ZM286.61 419.312L293.266 404.752H294.785L301.441 419.312H299.818L293.703 405.647H294.327L288.212 419.312H286.61ZM289.231 415.423L289.689 414.175H298.154L298.612 415.423H289.231ZM303.849 419.312V404.752H305.118L311.774 416.109H311.109L317.702 404.752H318.971V419.312H317.494V407.061H317.848L311.774 417.461H311.046L304.931 407.061H305.326V419.312H303.849Z" fill="#0D6CAC"/>
</svg>
